# xmcd
#
# Track frame offsets:
#	150
#	10399
#	23915
#	36594
#	40478
#	52874
#	65466
#	77681
#	91370
#	102781
#	115381
#	123945
#	136343
#	148301
#	159006
#	171787
#	186035
#	199078
#	212082
#	223911
#
# Disc length: 3176 seconds
#
# Revision: 0
# Processed by: cddbd v1.5.2PL0 Copyright (c) Steve Scherf et al.
# Submitted via: audiograbber 1.83.01
#
DISCID=1f0c6614
DTITLE=Various Artist - Simply Country CD2
DYEAR=1900
DGENRE=Country
TTITLE0=Dolly Parton - Release Me
TTITLE1=Merle Travis - Divorce me C.O.D.
TTITLE2=Lynn Anderson - Rose Garden
TTITLE3=Patsy Cline - Walkin' after Midnight
TTITLE4=Billie Jo Spears - The cheatin' kind
TTITLE5=Hank Williams - Honky tonkin'
TTITLE6=Johnny Cash - I walk the line
TTITLE7=Ernes Tubb - Goodnight Irene
TTITLE8=Kitty Wells - It wasn't God who made honky tonk angels
TTITLE9=Charley Pride - Crystal Chandeliers (live)
TTITLE10=Jim Reeves - Oklahoma Hills
TTITLE11=Faron Young - It's four in the morning
TTITLE12=Willie Nelson - Night life
TTITLE13=Patsy Cline - Honky tonk merry go round
TTITLE14=Gene Autry - South of the border (down Mexico way)
TTITLE15=Jerry Lee Lewis - What made Milwaukee famous (live)
TTITLE16=Ernest Tubb - Slippin' around
TTITLE17=Carl Perkins - Let the jukebox keep on playing
TTITLE18=Frankie Laine - High noon (do not forsake me)
TTITLE19=The Carter Family - Wildwood Flower
EXTD=
EXTT0=
EXTT1=
EXTT2=
EXTT3=
EXTT4=
EXTT5=
EXTT6=
EXTT7=
EXTT8=
EXTT9=
EXTT10=
EXTT11=
EXTT12=
EXTT13=
EXTT14=
EXTT15=
EXTT16=
EXTT17=
EXTT18=
EXTT19=
PLAYORDER=
